<svg id="visual" 
viewBox="0 0 960 540" 
width="960" height="540" 
xmlns="http://www.w3.org/2000/svg" 
xmlns:xlink="http://www.w3.org/1999/xlink" 
version="1.1"><rect x="0" y="0" width="960" height="540" 
fill="#002233"></rect>
<path d="M0 396L14.5 398.3C29 400.7 58 405.3 87.2 396.3C116.3 387.3 145.7 364.7 174.8 367C204 369.3 233 
396.7 262 410.5C291 424.3 320 424.7 349 430.2C378 435.7 407 446.3 436.2 432.8C465.3 419.3 494.7 381.7 523.8 
378.2C553 374.7 582 405.3 611 409.5C640 413.7 669 391.3 698 377.7C727 364 756 359 785.2 360.3C814.3 361.7 
843.7 369.3 872.8 370.7C902 372 931 367 945.5 364.5L960 362L960 541L945.5 541C931 541 902 541 872.8 541C843.7 
541 814.3 541 785.2 541C756 541 727 541 698 541C669 541 640 541 611 541C582 541 553 541 523.8 541C494.7 541 
465.3 541 436.2 541C407 541 378 541 349 541C320 541 291 541 262 541C233 541 204 541 174.8 541C145.7 541 116.3 
541 87.2 541C58 541 29 541 14.5 541L0 541Z"
 fill="#0066FF" stroke-linecap="round" stroke-linejoin="miter"></path></svg>