<svg id="visual" viewBox="0 0 960 540" width="960" height="540" xmlns="http://www.w3.org/2000/svg" xmlns:xlink="http://www.w3.org/1999/xlink" version="1.1"><rect x="0" y="0" width="960" height="540" fill="#002233"></rect><path d="M0 410L14.5 413.3C29 416.7 58 423.3 87.2 419.5C116.3 415.7 145.7 401.3 174.8 404C204 406.7 233 426.3 262 434.7C291 443 320 440 349 423.2C378 406.3 407 375.7 436.2 364.5C465.3 353.3 494.7 361.7 523.8 373.5C553 385.3 582 400.7 611 408.3C640 416 669 416 698 412.7C727 409.3 756 402.7 785.2 400.3C814.3 398 843.7 400 872.8 400.5C902 401 931 400 945.5 399.5L960 399L960 541L945.5 541C931 541 902 541 872.8 541C843.7 541 814.3 541 785.2 541C756 541 727 541 698 541C669 541 640 541 611 541C582 541 553 541 523.8 541C494.7 541 465.3 541 436.2 541C407 541 378 541 349 541C320 541 291 541 262 541C233 541 204 541 174.8 541C145.7 541 116.3 541 87.2 541C58 541 29 541 14.5 541L0 541Z" fill="#0066FF" stroke-linecap="round" stroke-linejoin="miter"></path></svg>